<svg width="29" height="36" viewBox="0 0 29 36" fill="none" xmlns="http://www.w3.org/2000/svg">
<path d="M24.0108 18.9737C24.045 16.3261 25.4668 13.8209 27.7224 12.4342C26.2995 10.4019 23.916 9.11343 21.4363 9.03584C18.7915 8.75823 16.2275 10.6185 14.8798 10.6185C13.506 10.6185 11.4309 9.06341 9.19639 9.10938C6.28382 9.20348 3.56857 10.8594 2.15155 13.4058C-0.894503 18.6795 1.37757 26.4302 4.29544 30.6931C5.7553 32.7805 7.46147 35.1122 9.69395 35.0295C11.8786 34.9389 12.6945 33.6365 15.3315 33.6365C17.9441 33.6365 18.7096 35.0295 20.9873 34.977C23.3315 34.9389 24.8085 32.8803 26.2171 30.7731C27.266 29.2857 28.0732 27.6418 28.6086 25.9024C25.8538 24.7372 24.0141 21.9648 24.0108 18.9737Z" fill="white"/>
<path d="M19.7085 6.23234C20.9866 4.69797 21.6163 2.72579 21.4638 0.734619C19.5111 0.939716 17.7073 1.873 16.4119 3.3485C15.1452 4.79015 14.4859 6.72763 14.6106 8.64269C16.564 8.66281 18.4844 7.75483 19.7085 6.23234Z" fill="white"/>
</svg>
