<svg width="53" height="53" viewBox="0 0 53 53" fill="none" xmlns="http://www.w3.org/2000/svg">
<path d="M43.0625 33.125H33.125V29.8125H43.0625V33.125ZM49.6875 46.375H39.75V43.0625H49.6875V46.375ZM46.375 39.75H36.4375V36.4375H46.375V39.75Z" fill="#CD9929"/>
<path d="M28.1609 33.125C28.1484 31.7276 27.7753 30.3572 27.0778 29.1463C26.3802 27.9355 25.3818 26.9252 24.1793 26.2135L36.4372 4.96875L33.5718 3.3125L21.0224 25.0524C19.4823 24.7085 17.8805 24.7562 16.3635 25.1911C14.8465 25.6259 13.4628 26.4341 12.3387 27.5418C6.13772 33.5225 6.61803 47.5046 6.64122 48.0975C6.65834 48.5252 6.84037 48.9296 7.14914 49.226C7.45791 49.5225 7.86945 49.6878 8.29747 49.6875H33.1263C33.4739 49.6875 33.8127 49.5781 34.0947 49.3749C34.3767 49.1716 34.5876 48.8848 34.6976 48.555C34.8075 48.2252 34.8109 47.8692 34.7072 47.5374C34.6036 47.2056 34.3982 46.9148 34.1201 46.7063C28.2569 42.3073 28.1609 33.2144 28.1609 33.125ZM19.7587 28.1513C21.0843 28.1658 22.3533 28.691 23.3016 29.6173C24.2499 30.5437 24.8045 31.8001 24.85 33.125C24.85 33.1879 24.8533 33.4695 24.8782 33.9018L15.1063 29.5558C15.75 29.025 16.4928 28.6275 17.2915 28.3864C18.0902 28.1453 18.9289 28.0653 19.7587 28.1513ZM25.5887 46.375C24.2649 45.027 23.421 43.2811 23.1872 41.4062H19.8747C19.9933 43.169 20.5439 44.8754 21.4779 46.375H17.7961C17.1147 44.2256 16.7002 42.0006 16.5622 39.75H13.2497C13.3558 41.9939 13.7255 44.2175 14.3511 46.375H9.93716C9.9885 43.3341 10.4175 36.6164 12.9234 32.2091L25.3999 37.7575C25.998 40.8705 27.2762 43.8131 29.143 46.375H25.5887Z" fill="#CD9929"/>
</svg>
