<svg width="21" height="20" viewBox="0 0 21 20" fill="none" xmlns="http://www.w3.org/2000/svg">
<path fill-rule="evenodd" clip-rule="evenodd" d="M16.4275 17.5C18.2684 17.5 19.7608 16.0076 19.7608 14.1667V6.68557C19.7611 6.67283 19.7611 6.66005 19.7608 6.64725V5.83333C19.7608 3.99238 18.2684 2.5 16.4275 2.5H4.7608C2.91985 2.5 1.42747 3.99238 1.42747 5.83333V6.64726C1.42717 6.66005 1.42717 6.67282 1.42747 6.68557V14.1667C1.42747 16.0076 2.91985 17.5 4.7608 17.5H16.4275ZM3.09413 14.1667C3.09413 15.0871 3.84033 15.8333 4.7608 15.8333H16.4275C17.3479 15.8333 18.0941 15.0871 18.0941 14.1667V7.89753L11.8321 10.4023C11.0374 10.7202 10.1509 10.7202 9.35616 10.4023L3.09413 7.89753V14.1667ZM11.2131 8.85488L18.0941 6.10247V5.83333C18.0941 4.91286 17.3479 4.16667 16.4275 4.16667H4.7608C3.84033 4.16667 3.09413 4.91286 3.09413 5.83333V6.10247L9.97515 8.85488C10.3725 9.01382 10.8158 9.01382 11.2131 8.85488Z" fill="#667185"/>
</svg>
