<svg width="1440" height="661" viewBox="0 0 1440 661" fill="none" xmlns="http://www.w3.org/2000/svg">
<path d="M1186.06 -373.273C1125.53 -282.022 1130.02 -158.544 1174.36 -58.4709C1218.71 41.6019 1297.51 121.873 1380.52 192.738C1463.54 263.603 1552.76 327.83 1627.25 407.712C1675.86 459.858 1720.13 529.53 1701.63 598.618C1683.23 667.223 1608.4 706.218 1538.07 712.59C1398.72 725.164 1269.89 645.002 1152.69 568.324C1035.53 491.653 905.908 412.232 766.719 426.525C672.763 436.211 588.494 487.991 512.133 543.994C435.772 599.998 362.129 662.261 274.771 698.499C187.413 734.736 80.7323 740.59 3.65485 685.856" stroke="url(#paint0_linear_4144_8602)" stroke-width="0.25" stroke-miterlimit="10"/>
<path d="M1201.44 -374.368C1138.87 -283.396 1140.37 -159.526 1182.34 -58.0308C1224.3 43.5132 1301.3 126.482 1384.33 198.997C1466.04 270.333 1554.91 334.311 1627.81 414.575C1675.9 467.55 1717.92 538.509 1697.81 606.63C1677.9 673.931 1603.42 711.078 1533.41 716.196C1394.11 725.833 1266.1 644.036 1148.84 566.303C1031.59 488.57 901.196 408.594 761.32 423.193C667.656 432.919 583.671 484.438 507.363 540.05C431.062 595.612 357.438 657.379 270.251 693.091C183.022 728.747 76.7203 734.004 0.2187 679.049" stroke="url(#paint1_linear_4144_8602)" stroke-width="0.25" stroke-miterlimit="10"/>
<path d="M1216.82 -375.463C1152.2 -284.722 1150.77 -160.502 1190.36 -57.5357C1229.94 45.4796 1305.12 131.146 1388.13 205.354C1468.53 277.16 1557.03 340.938 1628.39 421.542C1676.02 475.352 1715.79 547.551 1694.02 614.747C1672.65 680.8 1598.44 716.287 1528.83 719.913C1389.61 727.165 1262.34 643.174 1145.04 564.386C1027.73 485.597 896.509 405.11 755.953 419.965C662.63 429.737 578.88 480.99 502.681 536.167C426.482 591.344 352.882 652.565 265.775 687.689C178.717 722.82 72.7532 727.424 -3.1237 672.255" stroke="url(#paint2_linear_4144_8602)" stroke-width="0.25" stroke-miterlimit="10"/>
<path d="M1232.15 -376.515C1165.42 -286.011 1161.08 -161.491 1198.32 -56.9973C1235.57 47.4959 1308.85 135.847 1391.93 211.711C1471.03 283.988 1559.1 347.559 1628.97 428.558C1676.1 483.197 1713.6 556.685 1690.27 622.92C1667.44 687.675 1593.52 721.454 1524.3 723.686C1385.15 728.204 1258.68 642.376 1141.33 562.483C1023.97 482.59 891.972 401.647 750.694 416.702C657.657 426.564 574.148 477.5 498.107 532.249C422.01 587.041 348.386 647.71 261.457 682.26C174.528 716.809 68.9985 720.773 -6.3512 665.377" stroke="url(#paint3_linear_4144_8602)" stroke-width="0.25" stroke-miterlimit="10"/>
<path d="M1247.53 -377.61C1178.75 -287.336 1171.48 -162.466 1206.34 -56.502C1241.2 49.4626 1312.69 140.463 1395.78 218.026C1473.63 290.682 1561.28 354.144 1629.62 435.483C1676.27 491.006 1711.53 565.684 1686.53 631.043C1662.24 694.502 1588.61 726.524 1519.72 727.403C1380.6 729.229 1254.97 641.57 1137.52 560.566C1020.06 479.611 887.293 398.114 745.328 413.475C652.632 423.383 569.357 474.051 493.37 528.409C417.382 582.767 343.728 642.932 256.976 676.907C170.225 710.882 65.0257 714.243 -9.6994 658.632" stroke="url(#paint4_linear_4144_8602)" stroke-width="0.25" stroke-miterlimit="10"/>
<path d="M1262.91 -378.706C1192.09 -288.71 1181.84 -163.449 1214.36 -56.0066C1246.89 51.4358 1316.52 145.078 1399.58 224.334C1476.14 297.412 1563.36 360.716 1630.16 442.394C1676.3 498.795 1709.36 574.671 1682.7 639.104C1657.01 701.223 1583.56 731.523 1515.1 731.065C1376.01 730.149 1251.23 640.659 1133.72 558.6C1016.21 476.54 882.663 394.587 739.969 410.199C647.566 420.146 564.582 470.505 488.697 524.477C412.811 578.45 339.182 638.07 252.559 671.463C165.936 704.857 61.1166 707.621 -12.9839 651.796" stroke="url(#paint5_linear_4144_8602)" stroke-width="0.25" stroke-miterlimit="10"/>
<path d="M1278.3 -379.801C1205.42 -290.035 1192.24 -164.425 1222.38 -55.5111C1252.52 53.4026 1320.36 149.645 1403.43 230.648C1478.75 304.106 1565.48 367.344 1630.81 449.319C1676.48 506.604 1707.34 583.677 1679.02 647.185C1651.92 708.014 1578.71 736.55 1510.59 734.74C1371.51 731.083 1247.58 639.762 1129.97 556.64C1012.41 473.525 878.036 391.061 734.668 406.88C642.599 416.923 559.808 466.959 484.074 520.553C408.297 574.091 334.637 633.208 248.143 666.02C161.692 698.888 57.2091 700.999 -16.3155 644.953" stroke="url(#paint6_linear_4144_8602)" stroke-width="0.25" stroke-miterlimit="10"/>
<path d="M1293.63 -380.902C1218.65 -291.374 1202.55 -165.414 1230.35 -55.0224C1258.16 55.3692 1324.2 154.26 1407.19 236.949C1481.27 310.737 1567.5 374.007 1631.35 456.23C1676.5 514.393 1705.17 592.614 1675.19 655.295C1646.67 714.833 1573.65 741.599 1505.96 738.45C1366.86 732.046 1243.78 638.894 1126.16 554.724C1008.54 470.553 873.355 387.528 729.301 403.652C637.524 413.735 555.017 463.511 479.342 516.663C403.668 569.816 329.984 628.381 243.668 660.619C157.346 692.905 53.242 694.419 -19.6579 638.159" stroke="url(#paint7_linear_4144_8602)" stroke-width="0.25" stroke-miterlimit="10"/>
<path d="M1309.01 -381.997C1231.98 -292.699 1212.96 -166.439 1238.37 -54.5267C1263.8 57.3362 1328.04 158.827 1411.04 243.264C1483.88 317.382 1569.62 380.635 1631.99 463.155C1676.63 522.195 1703.2 601.627 1671.46 663.37C1641.58 721.575 1568.7 746.613 1501.43 742.175C1362.37 732.98 1240.12 638.095 1122.41 552.765C1004.7 467.483 868.776 384.009 724 400.334C632.515 410.457 550.292 459.971 474.727 512.69C399.154 565.457 325.495 623.476 239.301 655.182C153.108 686.887 49.4387 687.762 -22.9407 631.323" stroke="url(#paint8_linear_4144_8602)" stroke-width="0.25" stroke-miterlimit="10"/>
<path d="M1324.39 -383.092C1245.31 -294.073 1223.32 -167.421 1246.35 -54.0866C1269.39 59.2476 1331.85 163.289 1414.85 249.523C1486.51 323.979 1571.7 387.256 1632.55 470.018C1676.66 529.985 1701.1 610.523 1667.68 671.389C1636.45 728.31 1563.77 751.529 1496.82 745.787C1357.75 733.796 1236.38 637.136 1118.62 550.75C1000.86 464.364 864.107 380.427 718.651 397.009C627.5 407.227 545.525 456.376 470.055 508.758C394.591 561.092 320.908 618.559 234.886 649.738C148.87 680.869 45.5311 681.14 -26.217 624.438" stroke="url(#paint9_linear_4144_8602)" stroke-width="0.25" stroke-miterlimit="10"/>
<path d="M1339.77 -384.187C1258.64 -295.398 1233.72 -168.397 1254.37 -53.5916C1275.07 61.2206 1335.74 167.813 1418.65 255.831C1489.07 330.617 1573.71 393.918 1633.14 476.935C1676.72 537.829 1699.07 619.528 1663.9 679.456C1631.31 735.044 1558.76 756.535 1492.25 749.455C1353.16 734.667 1232.68 636.232 1114.81 548.784C996.948 461.335 859.479 376.851 713.288 393.732C622.429 403.99 540.689 452.872 465.328 504.82C389.967 556.768 316.26 613.682 230.415 644.288C144.527 674.837 41.5683 674.511 -29.5552 617.595" stroke="url(#paint10_linear_4144_8602)" stroke-width="0.25" stroke-miterlimit="10"/>
<path d="M1355.11 -385.289C1271.87 -296.737 1244.02 -169.386 1262.34 -53.1027C1280.66 63.1807 1339.59 172.331 1422.45 262.139C1491.69 337.213 1575.72 400.631 1633.73 483.853C1676.8 545.674 1697.05 628.486 1660.16 687.58C1626.26 741.842 1553.81 761.549 1487.72 753.179C1348.62 735.594 1229.02 635.384 1111.1 546.88C993.193 458.327 854.893 373.381 708.028 390.469C617.511 400.774 536.006 449.388 460.747 500.951C385.488 552.513 311.806 608.882 226.041 638.9C140.325 668.923 37.7027 667.945 -32.8449 610.808" stroke="url(#paint11_linear_4144_8602)" stroke-width="0.25" stroke-miterlimit="10"/>
<path d="M1370.49 -386.383C1285.2 -298.061 1254.38 -170.368 1270.36 -52.6065C1286.35 65.1549 1343.49 176.856 1426.26 268.447C1494.32 343.809 1577.74 407.344 1634.32 490.821C1676.81 553.561 1695.02 637.542 1656.38 695.697C1621.16 748.682 1548.81 766.557 1483.1 756.891C1343.99 736.46 1225.26 634.572 1107.26 544.908C989.291 455.3 850.223 369.799 702.623 387.187C612.391 397.58 531.176 445.885 456.026 497.013C380.876 548.142 307.164 604.007 221.577 633.45C135.989 662.893 33.7529 661.268 -36.1767 603.966" stroke="url(#paint12_linear_4144_8602)" stroke-width="0.25" stroke-miterlimit="10"/>
<path d="M1385.87 -387.478C1298.53 -299.386 1264.79 -171.344 1278.38 -52.1109C1291.98 67.1217 1347.4 181.331 1430.11 274.762C1497.05 350.37 1579.8 414.062 1634.92 497.739C1676.89 561.406 1693.06 646.506 1652.6 703.765C1616.08 755.424 1543.82 771.514 1478.53 760.559C1339.41 737.282 1221.52 633.661 1103.51 542.949C985.444 452.23 845.595 366.273 697.315 383.917C607.424 394.357 526.396 442.388 451.354 493.082C376.307 543.825 302.57 599.139 217.16 628.006C131.751 656.874 29.8936 654.653 -39.4601 597.13" stroke="url(#paint13_linear_4144_8602)" stroke-width="0.25" stroke-miterlimit="10"/>
<path d="M1401.2 -388.58C1311.82 -300.767 1275.1 -172.382 1286.35 -51.6221C1297.57 69.0818 1351.3 185.806 1433.91 281.07C1499.67 356.917 1581.76 420.768 1635.51 504.657C1676.9 569.293 1691.08 655.519 1648.86 711.84C1611.08 762.228 1538.88 776.479 1473.96 764.227C1334.84 738.056 1217.82 632.758 1099.7 540.983C981.588 449.209 840.916 362.74 691.963 380.592C602.364 391.072 521.626 438.793 446.68 489.15C371.741 539.459 298.023 594.276 212.742 622.563C127.461 650.85 25.9833 648.031 -42.7945 590.287" stroke="url(#paint14_linear_4144_8602)" stroke-width="0.25" stroke-miterlimit="10"/>
<path d="M1416.59 -389.675C1325.1 -302.099 1285.5 -173.357 1294.38 -51.1266C1303.25 71.0552 1355.21 190.233 1437.72 287.378C1502.35 363.47 1583.77 427.529 1636.1 511.575C1676.92 577.131 1689.16 664.538 1645.08 719.956C1606.03 769.073 1533.88 781.437 1469.38 767.994C1330.25 738.927 1214.11 631.952 1095.94 539.122C977.777 446.243 836.33 359.27 686.641 377.42C597.377 387.995 516.88 435.4 442.043 485.323C367.207 535.247 293.465 589.512 208.313 617.217C123.154 644.972 22.0622 641.507 -46.0843 583.5" stroke="url(#paint15_linear_4144_8602)" stroke-width="0.25" stroke-miterlimit="10"/>
<path d="M1431.97 -390.77C1338.43 -303.424 1295.86 -174.34 1302.39 -50.6315C1308.88 73.0706 1359.17 194.714 1441.57 293.692C1505.08 370.03 1585.77 434.29 1636.7 518.493C1676.94 585.018 1687.24 673.508 1641.3 728.024C1601.03 775.877 1528.9 786.345 1464.81 771.661C1325.68 739.7 1210.41 631.097 1092.14 537.156C973.873 443.215 831.652 355.736 681.283 374.143C592.311 384.759 512.049 431.896 437.314 481.434C362.58 530.972 288.814 584.685 203.833 611.865C118.852 639.044 18.0972 634.927 -49.4801 576.748" stroke="url(#paint16_linear_4144_8602)" stroke-width="0.25" stroke-miterlimit="10"/>
<path d="M1447.35 -391.865C1351.76 -304.749 1306.26 -175.316 1310.37 -50.1911C1314.53 74.9889 1363.09 199.092 1445.32 299.994C1507.72 376.529 1587.63 441.032 1637.24 525.405C1676.91 592.899 1685.27 682.522 1637.52 736.092C1595.98 782.675 1523.9 791.304 1460.19 775.324C1321.07 740.419 1206.66 630.187 1088.35 535.141C970.032 440.096 827.03 352.162 675.939 370.769C587.308 381.431 507.281 428.301 432.655 477.405C358.029 526.509 284.281 579.725 199.43 606.323C114.578 632.922 14.2018 628.207 -52.7508 569.815" stroke="url(#paint17_linear_4144_8602)" stroke-width="0.25" stroke-miterlimit="10"/>
<path d="M1462.68 -392.917C1365.04 -306.081 1316.56 -176.256 1318.34 -49.6534C1320.11 76.9979 1367.05 203.525 1449.12 306.351C1510.4 383.082 1589.58 447.835 1637.83 532.372C1676.91 600.835 1683.33 691.639 1633.73 744.208C1590.98 789.527 1518.91 796.261 1455.62 779.041C1316.5 741.192 1202.91 629.325 1084.54 533.224C966.17 437.123 822.351 348.629 670.574 367.542C582.228 378.293 502.499 424.804 427.975 473.522C353.452 522.241 279.68 574.905 195.006 600.929C110.331 626.953 10.3347 621.641 -56.042 563.027" stroke="url(#paint18_linear_4144_8602)" stroke-width="0.25" stroke-miterlimit="10"/>
<path d="M1478.06 -394.012C1378.32 -307.413 1326.97 -177.28 1326.36 -49.1577C1325.79 78.9715 1371.05 207.965 1452.97 312.666C1513.18 389.601 1591.53 454.59 1638.47 539.296C1676.92 608.771 1681.5 700.672 1629.99 752.332C1586.02 796.436 1513.97 801.226 1451.04 782.758C1311.93 741.966 1199.2 628.519 1080.78 531.314C962.363 434.109 817.714 345.152 665.263 364.272C577.259 375.07 497.764 421.313 423.294 469.64C348.873 517.973 275.077 570.085 190.532 595.528C105.987 620.97 6.36897 615.062 -59.4318 556.227" stroke="url(#paint19_linear_4144_8602)" stroke-width="0.25" stroke-miterlimit="10"/>
<path d="M1493.44 -395.107C1391.65 -308.738 1337.32 -178.263 1334.38 -48.6625C1331.43 80.938 1375.07 212.355 1456.77 318.973C1515.91 396.112 1593.43 461.387 1639.02 546.208C1676.89 616.651 1679.57 709.741 1626.21 760.4C1581.07 803.246 1508.98 806.086 1446.47 786.426C1307.37 742.641 1195.5 627.615 1076.98 529.348C958.459 431.081 813.084 341.625 659.905 360.996C572.192 371.833 492.933 417.809 418.62 465.708C344.308 513.607 270.537 565.173 186.114 590.084C101.74 615.001 2.45913 608.44 -62.717 549.391" stroke="url(#paint20_linear_4144_8602)" stroke-width="0.25" stroke-miterlimit="10"/>
<path d="M1508.82 -396.202C1404.98 -310.063 1347.68 -179.245 1342.4 -48.1665C1337.06 82.9053 1379.09 216.697 1460.63 325.288C1518.7 402.581 1595.38 468.191 1639.65 553.182C1676.89 624.637 1677.73 718.872 1622.47 768.524C1576.11 810.155 1504.04 811.051 1441.95 790.151C1302.85 743.373 1191.85 626.768 1073.28 527.396C954.71 428.024 808.512 338.057 654.646 357.733C567.268 368.666 488.25 414.326 414.04 461.84C339.829 509.353 266.034 560.367 181.789 584.703C97.5437 609.039 -1.35079 601.832 -65.951 542.562" stroke="url(#paint21_linear_4144_8602)" stroke-width="0.25" stroke-miterlimit="10"/>
<path d="M1524.15 -397.304C1418.26 -311.444 1358.04 -180.228 1350.37 -47.6779C1342.7 84.8718 1383.1 221.087 1464.43 331.596C1521.43 409.092 1597.28 474.987 1640.25 560.099C1676.85 632.566 1675.89 727.954 1618.69 776.64C1571.15 817.064 1499.05 815.959 1437.32 793.861C1298.24 744.091 1188.09 625.906 1069.42 525.472C950.751 425.038 803.827 334.573 649.238 354.45C562.152 365.423 483.418 410.822 409.268 457.894C335.166 504.974 261.341 555.485 177.273 579.246C93.1569 603 -5.35844 595.196 -69.334 535.712" stroke="url(#paint22_linear_4144_8602)" stroke-width="0.25" stroke-miterlimit="10"/>
<path d="M1539.54 -398.398C1431.55 -312.776 1368.39 -181.21 1358.39 -47.1823C1348.34 86.8387 1387.18 225.436 1468.23 337.904C1524.17 415.554 1599.14 481.778 1640.84 567.018C1676.77 640.44 1674.05 737.084 1614.96 784.715C1566.23 823.979 1494.17 820.833 1432.8 797.536C1293.74 744.724 1184.44 625.058 1065.72 523.52C947.002 421.981 799.248 331.053 643.979 351.187C557.234 362.206 478.693 407.282 404.694 453.976C330.694 500.67 256.894 550.636 172.9 573.858C88.9608 597.038 -9.17529 588.636 -72.575 528.932" stroke="url(#paint23_linear_4144_8602)" stroke-width="0.25" stroke-miterlimit="10"/>
<path d="M1554.92 -399.494C1444.87 -314.101 1378.8 -182.186 1366.36 -46.6936C1353.97 88.8053 1391.25 229.784 1472.04 344.212C1526.96 422.023 1600.99 488.568 1641.39 573.929C1676.63 648.356 1672.16 746.208 1611.13 792.776C1561.23 830.831 1489.14 825.735 1428.18 801.247C1289.18 745.399 1180.64 624.19 1061.86 521.596C943.09 419.002 794.569 327.52 638.565 347.953C552.112 359.012 473.854 403.827 399.957 450.136C326.06 496.445 252.236 545.858 168.419 568.505C84.6028 591.153 -13.1475 582.106 -75.9712 522.18" stroke="url(#paint24_linear_4144_8602)" stroke-width="0.25" stroke-miterlimit="10"/>
<path d="M1570.3 -400.589C1458.2 -315.426 1389.16 -183.218 1374.38 -46.2475C1359.61 90.7227 1395.38 234.04 1475.85 350.47C1529.76 428.443 1602.85 495.309 1641.99 580.798C1676.54 656.278 1670.32 755.29 1607.4 800.801C1556.37 837.704 1484.21 830.552 1423.61 804.866C1284.64 745.977 1176.95 623.237 1058.12 519.587C939.248 415.883 789.945 323.945 633.268 344.585C547.149 355.739 469.133 400.238 395.296 446.106C321.508 491.981 247.653 540.89 164.014 562.963C80.3755 585.036 -17.0376 575.336 -79.2435 515.246" stroke="url(#paint25_linear_4144_8602)" stroke-width="0.25" stroke-miterlimit="10"/>
<path d="M1585.63 -401.69C1471.49 -316.806 1399.51 -184.199 1382.36 -45.7578C1365.2 92.6837 1399.45 238.389 1479.65 356.779C1532.55 434.864 1604.65 502.093 1642.58 587.716C1676.46 664.202 1668.48 764.471 1603.62 808.918C1551.41 844.662 1479.28 835.468 1419.04 808.584C1280.14 746.611 1173.25 622.383 1054.32 517.622C935.396 412.862 785.276 320.364 627.912 341.309C542.086 352.504 464.305 396.735 390.619 442.225C316.933 487.714 243.055 536.071 159.593 557.57C76.0834 579.061 -20.9505 568.764 -82.525 508.411" stroke="url(#paint26_linear_4144_8602)" stroke-width="0.25" stroke-miterlimit="10"/>
<path d="M1601.01 -402.785C1484.77 -318.139 1409.87 -185.182 1390.38 -45.263C1370.89 94.6564 1403.62 242.701 1483.5 363.093C1535.39 441.339 1606.49 508.932 1643.22 594.64C1676.41 672.131 1666.68 773.657 1599.88 816.992C1546.48 851.626 1474.35 840.285 1414.47 812.251C1275.64 747.194 1169.54 621.527 1050.57 515.663C931.594 409.798 780.693 316.843 622.607 337.99C537.122 349.231 459.582 393.146 385.999 438.25C312.415 483.354 238.561 531.166 155.18 552.076C71.8477 572.993 -24.8559 562.093 -85.8545 501.518" stroke="url(#paint27_linear_4144_8602)" stroke-width="0.25" stroke-miterlimit="10"/>
<path d="M1616.39 -403.88C1498.1 -319.464 1420.27 -186.158 1398.4 -44.7673C1376.52 96.6234 1407.8 246.965 1487.3 369.401C1538.23 447.814 1608.3 515.715 1643.77 601.552C1676.22 680.089 1664.83 782.837 1596.1 825.06C1541.56 858.59 1469.42 845.152 1409.9 815.92C1271.14 747.779 1165.84 620.624 1046.77 513.697C927.69 406.77 776.015 313.311 617.249 334.713C532.049 346.044 454.8 389.649 381.325 434.319C307.85 478.988 233.966 526.297 150.763 546.633C67.5592 566.969 -28.7164 555.478 -89.1391 494.682" stroke="url(#paint28_linear_4144_8602)" stroke-width="0.25" stroke-miterlimit="10"/>
<path d="M1631.73 -404.981C1511.38 -320.795 1430.58 -187.147 1406.37 -44.2779C1382.16 98.5907 1411.93 251.271 1491.11 375.71C1541.07 454.242 1610.1 522.549 1644.37 608.471C1676.08 688.006 1662.98 792.066 1592.33 833.129C1536.6 865.499 1464.49 850.019 1405.33 819.589C1266.7 748.37 1162.15 619.72 1042.97 511.732C923.838 403.749 771.395 309.736 611.893 331.438C527.035 342.814 450.021 386.153 376.599 430.43C303.227 474.715 229.318 521.471 146.292 541.232C63.2113 561.036 -32.6718 548.85 -92.5252 487.883" stroke="url(#paint29_linear_4144_8602)" stroke-width="0.25" stroke-miterlimit="10"/>
<path d="M1647.11 -406.076C1524.72 -322.169 1440.99 -188.171 1414.39 -43.7826C1387.8 100.557 1416.16 255.541 1494.91 382.017C1543.87 460.661 1611.84 529.374 1644.95 615.437C1675.93 696.02 1661.16 801.35 1588.53 841.294C1531.62 872.603 1459.55 854.934 1400.7 823.348C1262.2 749.003 1158.34 618.901 1039.16 509.815C919.984 400.728 766.71 306.252 606.535 328.161C521.969 339.578 445.19 382.648 371.926 426.499C298.662 470.349 224.772 516.608 141.875 535.788C58.9717 555.017 -36.581 542.228 -95.8098 481.046" stroke="url(#paint30_linear_4144_8602)" stroke-width="0.25" stroke-miterlimit="10"/>
<path d="M1662.49 -407.172C1538 -323.501 1451.34 -189.154 1422.41 -43.2873C1393.48 102.531 1420.39 259.811 1498.76 388.332C1546.81 467.101 1613.69 536.165 1645.59 622.362C1675.79 703.936 1659.35 810.586 1584.85 849.375C1526.79 879.581 1454.72 859.765 1396.22 827.079C1257.84 749.607 1154.72 618.108 1035.45 507.911C916.168 397.762 762.169 302.788 601.266 324.947C517.034 336.459 440.496 379.213 367.334 422.678C294.173 466.143 220.259 511.851 137.484 530.498C54.7095 549.146 -40.464 535.759 -99.0682 474.364" stroke="url(#paint31_linear_4144_8602)" stroke-width="0.25" stroke-miterlimit="10"/>
<path d="M1677.87 -408.266C1551.33 -324.826 1461.7 -190.136 1430.38 -42.7984C1399.06 104.54 1424.62 264.081 1502.57 394.64C1549.65 473.577 1615.44 542.99 1646.14 629.273C1675.55 711.888 1657.49 819.863 1581.02 857.436C1521.77 886.58 1449.74 864.625 1391.6 830.74C1253.35 750.142 1150.98 617.198 1031.65 505.945C912.32 394.692 757.498 299.206 595.908 321.67C511.968 333.222 435.721 375.667 362.612 418.74C289.553 461.82 215.622 506.926 133.018 525.048C50.4213 543.121 -44.3729 529.137 -102.45 467.514" stroke="url(#paint32_linear_4144_8602)" stroke-width="0.25" stroke-miterlimit="10"/>
<path d="M1693.2 -409.319C1564.6 -326.109 1472.04 -191.07 1438.35 -42.3095C1404.65 106.5 1428.9 268.358 1506.32 400.941C1552.49 480.003 1617.14 549.81 1646.68 636.185C1675.31 719.84 1655.58 829.135 1577.18 865.547C1516.74 893.58 1444.76 869.485 1386.93 834.444C1248.81 750.72 1147.18 616.33 1027.74 504.015C908.361 391.706 752.715 295.709 590.452 318.381C506.853 329.979 430.792 372.15 357.834 414.844C284.835 457.483 210.971 502.099 128.496 519.64C46.0214 537.181 -48.3803 522.502 -105.833 460.665" stroke="url(#paint33_linear_4144_8602)" stroke-width="0.25" stroke-miterlimit="10"/>
<path d="M1708.58 -410.414C1577.93 -327.484 1482.4 -192.052 1446.37 -41.8142C1410.33 108.473 1433.18 272.586 1510.16 407.304C1555.38 486.485 1618.89 556.635 1647.32 643.158C1675.16 727.853 1653.81 838.474 1573.49 873.676C1511.86 900.649 1439.93 874.364 1382.45 838.175C1244.51 751.281 1143.57 615.488 1024.08 502.117C904.603 388.698 748.224 292.251 585.232 315.173C501.919 326.86 426.148 368.722 353.3 410.981C280.403 453.235 206.514 497.299 124.217 514.265C41.9203 531.231 -52.1511 515.949 -109.028 453.891" stroke="url(#paint34_linear_4144_8602)" stroke-width="0.25" stroke-miterlimit="10"/>
<path d="M1723.96 -411.509C1591.21 -328.815 1492.8 -193.028 1454.39 -41.3183C1415.96 110.44 1437.57 276.828 1513.97 413.613C1558.27 492.919 1620.59 563.455 1647.91 650.077C1674.92 735.806 1651.94 847.802 1569.71 881.745C1506.88 907.656 1435.07 879.091 1377.83 841.837C1240.21 751.543 1139.77 614.62 1020.24 500.096C900.706 385.621 743.511 288.614 579.832 311.842C496.86 323.575 421.324 365.169 348.536 406.988C275.741 448.856 201.829 492.368 119.661 508.753C37.4925 525.138 -56.1997 509.259 -112.451 446.986" stroke="url(#paint35_linear_4144_8602)" stroke-width="0.25" stroke-miterlimit="10"/>
<path d="M1739.34 -412.604C1604.55 -330.14 1503.17 -194.059 1462.41 -40.8226C1421.65 112.414 1441.9 281.062 1517.82 419.928C1561.21 499.359 1622.34 570.281 1648.51 656.995C1674.68 743.758 1650.13 857.087 1565.93 889.813C1501.9 914.711 1430.12 884.056 1373.27 845.505C1235.7 752.274 1136.07 613.717 1016.49 498.137C896.91 382.558 738.934 285.095 574.533 308.523C491.853 320.297 416.552 361.623 343.915 403.064C271.229 444.497 197.335 487.513 115.295 503.316C33.2564 519.12 -60.0566 502.644 -115.684 440.157" stroke="url(#paint36_linear_4144_8602)" stroke-width="0.25" stroke-miterlimit="10"/>
<defs>
<linearGradient id="paint0_linear_4144_8602" x1="1550.89" y1="957.448" x2="692.581" y2="-38.7504" gradientUnits="userSpaceOnUse">
<stop stop-color="#345E32"/>
<stop offset="1" stop-color="#8B6343"/>
</linearGradient>
<linearGradient id="paint1_linear_4144_8602" x1="1549.31" y1="951.299" x2="692.886" y2="-46.0819" gradientUnits="userSpaceOnUse">
<stop stop-color="#345E32"/>
<stop offset="1" stop-color="#8B6343"/>
</linearGradient>
<linearGradient id="paint2_linear_4144_8602" x1="1547.87" y1="945.19" x2="693.323" y2="-53.3904" gradientUnits="userSpaceOnUse">
<stop stop-color="#345E32"/>
<stop offset="1" stop-color="#8B6343"/>
</linearGradient>
<linearGradient id="paint3_linear_4144_8602" x1="1546.55" y1="939.006" x2="693.988" y2="-60.766" gradientUnits="userSpaceOnUse">
<stop stop-color="#345E32"/>
<stop offset="1" stop-color="#8B6343"/>
</linearGradient>
<linearGradient id="paint4_linear_4144_8602" x1="1545.31" y1="932.98" x2="694.615" y2="-68.1031" gradientUnits="userSpaceOnUse">
<stop stop-color="#345E32"/>
<stop offset="1" stop-color="#8B6343"/>
</linearGradient>
<linearGradient id="paint5_linear_4144_8602" x1="1544.07" y1="926.859" x2="695.326" y2="-75.4871" gradientUnits="userSpaceOnUse">
<stop stop-color="#345E32"/>
<stop offset="1" stop-color="#8B6343"/>
</linearGradient>
<linearGradient id="paint6_linear_4144_8602" x1="1543.06" y1="920.793" x2="696.255" y2="-82.9732" gradientUnits="userSpaceOnUse">
<stop stop-color="#345E32"/>
<stop offset="1" stop-color="#8B6343"/>
</linearGradient>
<linearGradient id="paint7_linear_4144_8602" x1="1541.98" y1="914.763" x2="697.105" y2="-90.3801" gradientUnits="userSpaceOnUse">
<stop stop-color="#345E32"/>
<stop offset="1" stop-color="#8B6343"/>
</linearGradient>
<linearGradient id="paint8_linear_4144_8602" x1="1541.14" y1="908.701" x2="698.246" y2="-97.9105" gradientUnits="userSpaceOnUse">
<stop stop-color="#345E32"/>
<stop offset="1" stop-color="#8B6343"/>
</linearGradient>
<linearGradient id="paint9_linear_4144_8602" x1="1540.29" y1="902.66" x2="699.385" y2="-105.409" gradientUnits="userSpaceOnUse">
<stop stop-color="#345E32"/>
<stop offset="1" stop-color="#8B6343"/>
</linearGradient>
<linearGradient id="paint10_linear_4144_8602" x1="1539.56" y1="896.654" x2="700.649" y2="-112.968" gradientUnits="userSpaceOnUse">
<stop stop-color="#345E32"/>
<stop offset="1" stop-color="#8B6343"/>
</linearGradient>
<linearGradient id="paint11_linear_4144_8602" x1="1538.95" y1="890.74" x2="701.982" y2="-120.463" gradientUnits="userSpaceOnUse">
<stop stop-color="#345E32"/>
<stop offset="1" stop-color="#8B6343"/>
</linearGradient>
<linearGradient id="paint12_linear_4144_8602" x1="1538.4" y1="884.757" x2="703.459" y2="-128.076" gradientUnits="userSpaceOnUse">
<stop stop-color="#345E32"/>
<stop offset="1" stop-color="#8B6343"/>
</linearGradient>
<linearGradient id="paint13_linear_4144_8602" x1="1537.97" y1="878.82" x2="705.046" y2="-135.673" gradientUnits="userSpaceOnUse">
<stop stop-color="#345E32"/>
<stop offset="1" stop-color="#8B6343"/>
</linearGradient>
<linearGradient id="paint14_linear_4144_8602" x1="1537.62" y1="872.904" x2="706.734" y2="-143.318" gradientUnits="userSpaceOnUse">
<stop stop-color="#345E32"/>
<stop offset="1" stop-color="#8B6343"/>
</linearGradient>
<linearGradient id="paint15_linear_4144_8602" x1="1537.36" y1="867.122" x2="708.429" y2="-150.847" gradientUnits="userSpaceOnUse">
<stop stop-color="#345E32"/>
<stop offset="1" stop-color="#8B6343"/>
</linearGradient>
<linearGradient id="paint16_linear_4144_8602" x1="1537.17" y1="861.33" x2="710.24" y2="-158.473" gradientUnits="userSpaceOnUse">
<stop stop-color="#345E32"/>
<stop offset="1" stop-color="#8B6343"/>
</linearGradient>
<linearGradient id="paint17_linear_4144_8602" x1="1537.06" y1="855.375" x2="712.269" y2="-166.211" gradientUnits="userSpaceOnUse">
<stop stop-color="#345E32"/>
<stop offset="1" stop-color="#8B6343"/>
</linearGradient>
<linearGradient id="paint18_linear_4144_8602" x1="1537.04" y1="849.595" x2="714.328" y2="-173.83" gradientUnits="userSpaceOnUse">
<stop stop-color="#345E32"/>
<stop offset="1" stop-color="#8B6343"/>
</linearGradient>
<linearGradient id="paint19_linear_4144_8602" x1="1537.15" y1="843.843" x2="716.49" y2="-181.537" gradientUnits="userSpaceOnUse">
<stop stop-color="#345E32"/>
<stop offset="1" stop-color="#8B6343"/>
</linearGradient>
<linearGradient id="paint20_linear_4144_8602" x1="1537.27" y1="838.072" x2="718.694" y2="-189.195" gradientUnits="userSpaceOnUse">
<stop stop-color="#345E32"/>
<stop offset="1" stop-color="#8B6343"/>
</linearGradient>
<linearGradient id="paint21_linear_4144_8602" x1="1536.14" y1="842.489" x2="712.049" y2="-187.386" gradientUnits="userSpaceOnUse">
<stop stop-color="#345E32"/>
<stop offset="1" stop-color="#8B6343"/>
</linearGradient>
<linearGradient id="paint22_linear_4144_8602" x1="1534.9" y1="848.023" x2="704.479" y2="-184.618" gradientUnits="userSpaceOnUse">
<stop stop-color="#345E32"/>
<stop offset="1" stop-color="#8B6343"/>
</linearGradient>
<linearGradient id="paint23_linear_4144_8602" x1="1533.71" y1="853.659" x2="696.913" y2="-181.682" gradientUnits="userSpaceOnUse">
<stop stop-color="#345E32"/>
<stop offset="1" stop-color="#8B6343"/>
</linearGradient>
<linearGradient id="paint24_linear_4144_8602" x1="1532.49" y1="859.457" x2="689.231" y2="-178.657" gradientUnits="userSpaceOnUse">
<stop stop-color="#345E32"/>
<stop offset="1" stop-color="#8B6343"/>
</linearGradient>
<linearGradient id="paint25_linear_4144_8602" x1="1531.39" y1="865.328" x2="681.639" y2="-175.55" gradientUnits="userSpaceOnUse">
<stop stop-color="#345E32"/>
<stop offset="1" stop-color="#8B6343"/>
</linearGradient>
<linearGradient id="paint26_linear_4144_8602" x1="1530.31" y1="871.446" x2="673.92" y2="-172.215" gradientUnits="userSpaceOnUse">
<stop stop-color="#345E32"/>
<stop offset="1" stop-color="#8B6343"/>
</linearGradient>
<linearGradient id="paint27_linear_4144_8602" x1="1529.31" y1="877.655" x2="666.254" y2="-168.857" gradientUnits="userSpaceOnUse">
<stop stop-color="#345E32"/>
<stop offset="1" stop-color="#8B6343"/>
</linearGradient>
<linearGradient id="paint28_linear_4144_8602" x1="1528.26" y1="884.017" x2="658.443" y2="-165.278" gradientUnits="userSpaceOnUse">
<stop stop-color="#345E32"/>
<stop offset="1" stop-color="#8B6343"/>
</linearGradient>
<linearGradient id="paint29_linear_4144_8602" x1="1527.26" y1="890.503" x2="650.637" y2="-161.657" gradientUnits="userSpaceOnUse">
<stop stop-color="#345E32"/>
<stop offset="1" stop-color="#8B6343"/>
</linearGradient>
<linearGradient id="paint30_linear_4144_8602" x1="1526.3" y1="897.244" x2="642.711" y2="-157.748" gradientUnits="userSpaceOnUse">
<stop stop-color="#345E32"/>
<stop offset="1" stop-color="#8B6343"/>
</linearGradient>
<linearGradient id="paint31_linear_4144_8602" x1="1525.4" y1="904.006" x2="634.864" y2="-153.802" gradientUnits="userSpaceOnUse">
<stop stop-color="#345E32"/>
<stop offset="1" stop-color="#8B6343"/>
</linearGradient>
<linearGradient id="paint32_linear_4144_8602" x1="1524.44" y1="910.913" x2="626.875" y2="-149.753" gradientUnits="userSpaceOnUse">
<stop stop-color="#345E32"/>
<stop offset="1" stop-color="#8B6343"/>
</linearGradient>
<linearGradient id="paint33_linear_4144_8602" x1="1523.49" y1="917.95" x2="618.868" y2="-145.568" gradientUnits="userSpaceOnUse">
<stop stop-color="#345E32"/>
<stop offset="1" stop-color="#8B6343"/>
</linearGradient>
<linearGradient id="paint34_linear_4144_8602" x1="1522.68" y1="925.142" x2="610.902" y2="-141.186" gradientUnits="userSpaceOnUse">
<stop stop-color="#345E32"/>
<stop offset="1" stop-color="#8B6343"/>
</linearGradient>
<linearGradient id="paint35_linear_4144_8602" x1="1521.81" y1="932.354" x2="602.888" y2="-136.876" gradientUnits="userSpaceOnUse">
<stop stop-color="#345E32"/>
<stop offset="1" stop-color="#8B6343"/>
</linearGradient>
<linearGradient id="paint36_linear_4144_8602" x1="1520.98" y1="939.763" x2="594.809" y2="-132.262" gradientUnits="userSpaceOnUse">
<stop stop-color="#345E32"/>
<stop offset="1" stop-color="#8B6343"/>
</linearGradient>
</defs>
</svg>
