<svg width="38" height="41" viewBox="0 0 38 41" fill="none" xmlns="http://www.w3.org/2000/svg">
<g filter="url(#filter0_ii_5490_338)">
<path d="M1.43626 0.872299C0.977933 1.3574 0.707031 2.11025 0.707031 3.08518V37.9179C0.707031 38.8944 0.977933 39.6457 1.43626 40.1308L1.55281 40.2441L21.0655 20.7315V20.5015V20.2716L1.55281 0.757324L1.43626 0.872299Z" fill="url(#paint0_linear_5490_338)"/>
<path d="M27.5686 27.2381L21.0654 20.7317V20.5018V20.2718L27.5702 13.7671L27.7167 13.8506L35.4231 18.2291C37.6234 19.4796 37.6234 21.5255 35.4231 22.7777L27.7167 27.1562L27.5686 27.2381Z" fill="url(#paint1_linear_5490_338)"/>
<g filter="url(#filter1_i_5490_338)">
<path d="M27.7165 27.1545L21.0637 20.5017L1.43604 40.1309C2.16054 40.8995 3.35911 40.994 4.70888 40.2286L27.7165 27.1545Z" fill="url(#paint2_linear_5490_338)"/>
</g>
<path d="M27.7165 13.8489L4.70888 0.776389C3.35911 0.00936377 2.16054 0.105439 1.43604 0.874039L21.0653 20.5033L27.7165 13.8489Z" fill="url(#paint3_linear_5490_338)"/>
</g>
<defs>
<filter id="filter0_ii_5490_338" x="0.707031" y="0.24707" width="36.3662" height="40.5103" filterUnits="userSpaceOnUse" color-interpolation-filters="sRGB">
<feFlood flood-opacity="0" result="BackgroundImageFix"/>
<feBlend mode="normal" in="SourceGraphic" in2="BackgroundImageFix" result="shape"/>
<feColorMatrix in="SourceAlpha" type="matrix" values="0 0 0 0 0 0 0 0 0 0 0 0 0 0 0 0 0 0 127 0" result="hardAlpha"/>
<feOffset dy="-0.219375"/>
<feComposite in2="hardAlpha" operator="arithmetic" k2="-1" k3="1"/>
<feColorMatrix type="matrix" values="0 0 0 0 0 0 0 0 0 0 0 0 0 0 0 0 0 0 0.12 0"/>
<feBlend mode="normal" in2="shape" result="effect1_innerShadow_5490_338"/>
<feColorMatrix in="SourceAlpha" type="matrix" values="0 0 0 0 0 0 0 0 0 0 0 0 0 0 0 0 0 0 127 0" result="hardAlpha"/>
<feOffset dy="0.219375"/>
<feComposite in2="hardAlpha" operator="arithmetic" k2="-1" k3="1"/>
<feColorMatrix type="matrix" values="0 0 0 0 1 0 0 0 0 1 0 0 0 0 1 0 0 0 0.25 0"/>
<feBlend mode="normal" in2="effect1_innerShadow_5490_338" result="effect2_innerShadow_5490_338"/>
</filter>
<filter id="filter1_i_5490_338" x="1.43604" y="20.5017" width="26.2803" height="20.2556" filterUnits="userSpaceOnUse" color-interpolation-filters="sRGB">
<feFlood flood-opacity="0" result="BackgroundImageFix"/>
<feBlend mode="normal" in="SourceGraphic" in2="BackgroundImageFix" result="shape"/>
<feColorMatrix in="SourceAlpha" type="matrix" values="0 0 0 0 0 0 0 0 0 0 0 0 0 0 0 0 0 0 127 0" result="hardAlpha"/>
<feOffset dy="-0.219375"/>
<feComposite in2="hardAlpha" operator="arithmetic" k2="-1" k3="1"/>
<feColorMatrix type="matrix" values="0 0 0 0 0 0 0 0 0 0 0 0 0 0 0 0 0 0 0.08 0"/>
<feBlend mode="normal" in2="shape" result="effect1_innerShadow_5490_338"/>
</filter>
<linearGradient id="paint0_linear_5490_338" x1="19.3358" y1="2.71662" x2="-7.09583" y2="29.1483" gradientUnits="userSpaceOnUse">
<stop stop-color="#00A0FF"/>
<stop offset="0.0066" stop-color="#00A1FF"/>
<stop offset="0.2601" stop-color="#00BEFF"/>
<stop offset="0.5122" stop-color="#00D2FF"/>
<stop offset="0.7604" stop-color="#00DFFF"/>
<stop offset="1" stop-color="#00E3FF"/>
</linearGradient>
<linearGradient id="paint1_linear_5490_338" x1="38.2873" y1="20.5018" x2="0.178726" y2="20.5018" gradientUnits="userSpaceOnUse">
<stop stop-color="#FFE000"/>
<stop offset="0.4087" stop-color="#FFBD00"/>
<stop offset="0.7754" stop-color="#FFA500"/>
<stop offset="1" stop-color="#FF9C00"/>
</linearGradient>
<linearGradient id="paint2_linear_5490_338" x1="24.1036" y1="24.1146" x2="-11.741" y2="59.9592" gradientUnits="userSpaceOnUse">
<stop stop-color="#FF3A44"/>
<stop offset="1" stop-color="#C31162"/>
</linearGradient>
<linearGradient id="paint3_linear_5490_338" x1="-3.50726" y1="-10.7214" x2="12.4984" y2="5.2842" gradientUnits="userSpaceOnUse">
<stop stop-color="#32A071"/>
<stop offset="0.0685" stop-color="#2DA771"/>
<stop offset="0.4762" stop-color="#15CF74"/>
<stop offset="0.8009" stop-color="#06E775"/>
<stop offset="1" stop-color="#00F076"/>
</linearGradient>
</defs>
</svg>
