<svg width="18" height="17" viewBox="0 0 18 17" fill="none" xmlns="http://www.w3.org/2000/svg">
<path d="M7.55728 1.37589C8.22193 0.319162 9.77775 0.319162 10.4424 1.37589L12.0498 3.93151C12.2836 4.30331 12.6551 4.57012 13.0851 4.67508L16.0405 5.39654C17.2626 5.69486 17.7434 7.15757 16.9321 8.10898L14.9701 10.4099C14.6846 10.7446 14.5427 11.1764 14.5746 11.613L14.7938 14.6145C14.8844 15.8556 13.6257 16.7596 12.4597 16.2909L9.6397 15.1573C9.22944 14.9924 8.77024 14.9924 8.35998 15.1573L5.53999 16.2909C4.37395 16.7596 3.11526 15.8556 3.20589 14.6145L3.42506 11.613C3.45694 11.1764 3.31504 10.7446 3.0296 10.4099L1.06758 8.10898C0.256302 7.15757 0.737077 5.69486 1.95913 5.39654L4.91458 4.67508C5.34454 4.57012 5.71604 4.30331 5.94989 3.93151L7.55728 1.37589Z" fill="#F5B546"/>
</svg>
